<?xml version="1.0" standalone="no"?>
<svg width="64" height="64" viewBox="0 0 512 384" version="1.1" xmlns="http://www.w3.org/2000/svg">
  <path d="M499 354c9 -9 13 -20 13 -33v-256c0 -27 -20 -49 -46 -49h-298c-13 0 -24 3 -34 9c-9 5 -16 11 -23 20v0l-1 1l-110 146l110 148c14 19 34 28 58 28h298c13 0 24 -5 33 -14zM413 116l-76 76l77 76c3 3 3 9 0 12l-22 22c-2 2 -4 2 -6 2s-4 0 -6 -2l-76 -76l-76 76 c-2 2 -4 2 -6 2s-4 0 -6 -2l-22 -22c-3 -3 -3 -9 0 -12l77 -76l-76 -76c-2 -2 -3 -4 -3 -6s1 -4 3 -6l21 -22c2 -2 4 -2 6 -2s4 0 6 2l76 77l76 -77c2 -2 4 -2 6 -2s4 0 6 2l21 22c2 2 3 4 3 6s-1 4 -3 6z" transform="matrix(1,0,0,-1,0,384)"/>
</svg>